<svg width="80" height="80">
	<path
		fill="white" stroke="#777" stroke-width="2" stroke-linejoin="round" paint-order="stroke markers fill"
		d="m 27.979185,18.07969 0.0014,0.0014 5.99934,5.99936 L 40,30.100505 v -7.12631 c 4.342324,2.17e-4 8.684695,1.668869 12.020815,5.00499 4.904613,4.904613 6.204494,11.984089 3.898755,18.04089 l 5.999359,5.999359 C 67.104307,42.530604 65.69061,30.335271 57.67767,22.32233 52.812853,17.457514 46.406428,15.024729 40,15.024768 V 6.0588747 Z m -9.898116,9.900874 C 12.895694,37.469396 14.30939,49.664729 22.32233,57.67767 27.187147,62.542486 33.593572,64.975271 40,64.975232 v 8.965893 L 52.020815,61.92031 52.019415,61.91891 46.020075,55.91957 40,49.899495 v 7.12631 C 35.657676,57.025588 31.315305,55.356936 27.979185,52.020815 23.074572,47.116202 21.774691,40.036726 24.08043,33.979925 Z"
	/>
</svg>
